<svg width="24" height="24" viewBox="0 0 24 24" fill="none" xmlns="http://www.w3.org/2000/svg">
<g clip-path="url(#clip0_2426_11469)">
<path d="M11.79 0C5.28 0 0 5.28 0 11.79C0 18.3 5.28 23.58 11.79 23.58C18.3 23.58 23.58 18.3 23.58 11.79C23.58 5.28 18.3 0 11.79 0ZM18.15 8.5L10.49 16.25C10.32 16.44 10.05 16.44 9.89 16.25L5.42 11.75C5.26 11.59 5.26 11.32 5.42 11.16L6.02 10.56C6.18 10.4 6.45 10.4 6.61 10.56L9.97 13.94C10.08 14.05 10.27 14.05 10.38 13.94L16.96 7.31C17.12 7.15 17.39 7.15 17.55 7.31L18.15 7.91C18.31 8.07 18.31 8.34 18.15 8.5Z" fill="#68E25B"/>
</g>
<defs>
<clipPath id="clip0_2426_11469">
<rect width="23.58" height="23.58" fill="white"/>
</clipPath>
</defs>
</svg>
