<svg width="19" height="19" viewBox="0 0 19 19" fill="none" xmlns="http://www.w3.org/2000/svg">
<g clip-path="url(#clip0_3370_1231)">
<path d="M9.5 0C4.275 0 0 4.275 0 9.5C0 14.725 4.275 19 9.5 19C14.725 19 19 14.725 19 9.5C19 4.275 14.725 0 9.5 0ZM9.5 16.625C5.58125 16.625 2.375 13.4187 2.375 9.5C2.375 5.58125 5.58125 2.375 9.5 2.375C13.4187 2.375 16.625 5.58125 16.625 9.5C16.625 13.4187 13.4187 16.625 9.5 16.625Z" fill="white"/>
<path d="M10.8458 9.57917C10.7271 9.46042 10.6875 9.30208 10.6875 9.14375V5.34375C10.6875 5.02708 10.4104 4.75 10.0937 4.75H8.90625C8.58958 4.75 8.3125 5.02708 8.3125 5.34375V10.1333C8.3125 10.2917 8.39167 10.45 8.47083 10.5688L11.4 13.4979C11.6375 13.7354 11.9937 13.7354 12.2312 13.4979L13.0625 12.6667C13.3 12.4292 13.3 12.0729 13.0625 11.8354L10.8458 9.57917Z" fill="white"/>
</g>
<defs>
<clipPath id="clip0_3370_1231">
<rect width="19" height="19" fill="white"/>
</clipPath>
</defs>
</svg>
