<svg width="23" height="23" viewBox="0 0 23 23" fill="none" xmlns="http://www.w3.org/2000/svg">
<g clip-path="url(#clip0_2426_10960)">
<path d="M11.4984 22.9969C17.8488 22.9969 22.9969 17.8488 22.9969 11.4984C22.9969 5.14802 17.8488 0 11.4984 0C5.14802 0 0 5.14802 0 11.4984C0 17.8488 5.14802 22.9969 11.4984 22.9969Z" fill="#7C868D"/>
<path d="M10.2899 7.49106C9.97632 7.19944 9.81641 6.8357 9.81641 6.40612C9.81641 5.97654 9.97319 5.59712 10.2899 5.30551C10.6035 5.01389 11.0111 4.86652 11.5065 4.86652C12.002 4.86652 12.3939 5.01389 12.7075 5.30551C13.021 5.59712 13.181 5.96713 13.181 6.40612C13.181 6.84511 13.0242 7.19944 12.7075 7.49106C12.3939 7.78267 11.9925 7.93005 11.5065 7.93005C11.0205 7.93005 10.6035 7.78267 10.2899 7.49106ZM12.9176 8.89269V18.1366H10.0829V8.89269H12.9176Z" fill="white"/>
</g>
<defs>
<clipPath id="clip0_2426_10960">
<rect width="23" height="23" fill="white"/>
</clipPath>
</defs>
</svg>
