<svg width="16" height="16" viewBox="0 0 16 16" fill="none" xmlns="http://www.w3.org/2000/svg">
<path fill-rule="evenodd" clip-rule="evenodd" d="M15.8822 14.4174L11.4109 9.99591C13.4563 7.18042 12.829 3.24206 10.0128 1.19957C7.18981 -0.842908 3.24904 -0.216502 1.20024 2.59899C0.292628 3.8518 -0.124473 5.39116 0.032357 6.93052C0.376048 10.3924 3.46593 12.9214 6.93288 12.5782C8.0407 12.4682 9.09847 12.0684 10.0027 11.4186L14.4407 15.8501C14.6242 16.0434 14.9312 16.0501 15.1247 15.8668C15.1314 15.8601 15.1348 15.8568 15.1414 15.8501L15.8422 15.1504C16.0357 14.9505 16.0524 14.6373 15.8822 14.4174ZM6.30556 10.5857C3.92975 10.5857 2.00107 8.6598 2.00107 6.28745C2.00107 3.91511 3.92975 1.98925 6.30556 1.98925C8.68137 1.98925 10.61 3.91511 10.61 6.28745C10.6167 8.65647 8.69805 10.579 6.32558 10.5857C6.3189 10.5857 6.31223 10.5857 6.30556 10.5857Z" fill="#7C868D"/>
</svg>
